<?xml version="1.0" encoding="UTF-8" standalone="no"?><!-- Generator: Gravit.io --><svg xmlns="http://www.w3.org/2000/svg" xmlns:xlink="http://www.w3.org/1999/xlink" style="isolation:isolate" viewBox="0 0 20 20" width="20pt" height="20pt"><defs><clipPath id="_clipPath_Ifz9ojh57P3N8LMxmYX55MpKLpHaKr05"><rect width="20" height="20"/></clipPath></defs><g clip-path="url(#_clipPath_Ifz9ojh57P3N8LMxmYX55MpKLpHaKr05)"><path d=" M 4.995 10 C 4.995 12.761 7.241 15.007 10.002 15.007 C 12.763 15.007 15.009 12.761 15.009 10 C 15.009 7.239 12.763 4.993 10.002 4.993 C 7.241 4.993 4.995 7.239 4.995 10 Z  M 9 17 L 11 17 L 11 20 L 9 20 L 9 17 Z  M 9 0 L 11 0 L 11 3 L 9 3 L 9 0 Z  M 0 9 L 3 9 L 3 11 L 0 11 L 0 9 Z  M 17 9 L 20 9 L 20 11 L 17 11 L 17 9 Z  M 3.637 17.778 L 2.223 16.364 L 4.344 14.243 L 5.758 15.657 L 3.637 17.778 Z  M 14.242 4.344 L 16.364 2.222 L 17.778 3.636 L 15.656 5.758 L 14.242 4.344 Z  M 4.344 5.759 L 2.223 3.637 L 3.638 2.223 L 5.758 4.345 L 4.344 5.759 Z  M 17.778 16.364 L 16.364 17.778 L 14.242 15.656 L 15.656 14.242 L 17.778 16.364 Z " fill="rgb(255,255,255)"/></g></svg>